<?xml version="1.0" encoding="UTF-8"?><svg id="Layer_1" xmlns="http://www.w3.org/2000/svg" viewBox="0 0 1909.25 631.22"><defs><style>.cls-1{fill:#f15949;}.cls-2{fill:#232b45;}</style></defs><g><path class="cls-1" d="M740.22,324.12c-39.46,0-71.61,19.73-86.88,55.37-7.32,16.55-10.19,36.92-10.5,60.46v2.87c0,89.11,45.19,119.66,104.06,119.66,32.46,.32,63.33-13.05,84.97-36.92,.64-.63,.64-1.91-.32-2.55l-27.69-25.14c-.63-.63-1.59-.63-2.55,0-16.23,15.92-30.87,22.6-53.78,22.6-38.51,0-58.24-23.87-58.24-63.97h146.07c.96,0,1.6-.63,1.6-1.59l.32-34.69c.32-56.96-35.32-96.1-97.06-96.1m52.51,93.56h-102.47v-3.82c.64-10.82,1.27-15.91,5.73-24.19,7.32-13.37,23.87-22.28,45.51-22.28s37.87,8.91,44.87,22.28c4.45,7.95,5.72,13.37,6.36,24.19v3.82Z"/><path class="cls-1" d="M1197.21,324.12c-39.46,0-71.6,19.73-86.88,55.37-7.32,16.55-10.18,36.92-10.5,60.46v2.87c0,89.11,45.19,119.66,104.06,119.66,32.46,.32,63.33-13.05,84.97-36.92,.64-.63,.64-1.91-.32-2.55l-27.69-25.14c-.64-.63-1.59-.63-2.55,0-16.23,15.92-30.87,22.6-53.79,22.6-38.51,0-58.24-23.87-58.24-63.97h146.07c.96,0,1.59-.63,1.59-1.59l.32-34.69c.63-56.96-35.33-96.1-97.07-96.1m52.83,93.56h-102.47v-3.82c.64-10.82,1.27-15.91,5.73-24.19,7.32-13.37,23.87-22.28,45.51-22.28s37.87,8.91,44.87,22.28c4.45,7.95,5.72,13.37,6.36,24.19v3.82Z"/><path class="cls-1" d="M437.58,328.57v38.82c0,.96,.96,1.59,1.59,1.91h106.93l-114.25,187.76c-.63,.96-.32,1.91,.64,2.23,.32,.32,.63,.32,.96,.32h187.76c.96,0,1.59-.95,1.59-1.91v-38.82c0-.96-.95-1.91-1.59-1.91h-111.38l113.61-187.76c.63-.96,.32-1.91-.64-2.23-.32-.32-.63-.32-.95-.32h-182.67c-.95,0-1.59,.96-1.59,1.91"/><path class="cls-1" d="M1662.48,266.84h-41.37c-.96,0-1.6,.96-1.6,1.59v58.24h-30.55c-.96,0-1.59,.95-1.59,1.91v38.82c0,.96,.96,1.6,1.59,1.91h30.55v121.56c0,50.6,36.92,70.34,77.02,70.34,4.14,0,6.69,0,8.91-.32,.95,0,1.59-.95,1.59-1.91v-39.78c0-.96-.96-1.59-1.91-1.59-2.23,.32-4.45,.32-7,0-22.6-.96-34.06-13.05-34.06-39.78v-108.84h45.51c.96,0,1.91-.96,1.91-1.6v-38.82c0-.96-.96-1.91-1.91-1.91h-45.51v-57.92c0-1.27-.63-1.91-1.59-1.91"/><path class="cls-1" d="M1885.56,442.19c-15.28-10.82-37.87-16.55-66.19-21.32-37.23-6.36-42.01-13.68-41.69-28.32,0-8.28,4.45-15.91,12.09-19.73,11.45-6.37,23.86-6.69,35.32-5.41,13.37,1.27,30.23,6.36,42.01,19.1,.63,.63,1.59,.96,2.23,.32l.32-.32,28-25.46c.64-.64,.96-1.6,.32-2.23-5.09-7-11.45-12.73-19.1-17.18-8.59-5.41-18.14-9.86-27.68-12.73-10.82-2.86-21.96-4.46-33.42-4.46-14.96-.32-29.92,2.55-43.91,7.96-9.55,4.14-18.46,10.19-25.46,18.14-7,7.96-11.45,17.51-13.68,27.69-2.55,12.09-2.23,24.5,1.27,36.28,2.55,7.96,7,15.28,12.73,21.64,16.54,18.14,42.64,23.23,68.1,27.69,17.18,3.18,48.37,4.46,47.74,28.32-.64,23.24-28.64,30.56-47.74,30.56-21.96,0-40.74-7.96-56.01-23.24-.64-.63-1.6-.63-2.55-.32l-27.37,24.83c-.64,.63-.96,1.59-.32,2.55,20.05,22.59,54.42,36.28,89.11,36.28,44.55,0,86.87-21.64,89.42-67.78,1.27-24.51-6.69-41.05-23.55-52.83"/><path class="cls-1" d="M1528.5,219.42c17.58,0,31.82,14.25,31.82,31.82s-14.24,31.83-31.82,31.83-31.82-14.25-31.82-31.83,14.24-31.82,31.82-31.82"/><path class="cls-1" d="M1398.66,326.66v-32.14c1.27-23.86,17.51-33.09,36.28-33.41,9.55-.32,19.41,.63,28.96,1.59,.96,.32,1.91-.32,1.91-1.27v-38.82c0-.96-.64-1.59-1.6-1.59-9.55-1.91-19.1-2.55-28.64-2.55h-4.14c-45.5,0-77.65,25.46-77.65,72.24v36.28h-34.69c-.96,0-1.59,.64-1.59,1.6v38.82c0,.96,.96,1.59,1.59,1.91h34.69v188.72c0,.95,.96,1.91,1.59,1.91h41.37c.96,0,1.6-.96,1.6-1.91v-188.72h107.56v188.72c0,.95,.96,1.91,1.59,1.91h41.37c.96,0,1.6-.96,1.6-1.91v-229.45c0-.96-.96-1.6-1.6-1.91h-150.21Z"/><path class="cls-1" d="M1036.18,344.8c-14.64-13.68-34.05-21-59.51-21-17.51,0-32.78,2.55-48.06,12.73-3.18,2.23-6.36,4.46-8.91,7-.64,.63-1.27,1.27-2.23,1.91v-16.87c0-.96-.96-1.6-1.6-1.91h-41.37c-.96,0-1.59,.96-1.59,1.91v229.13c0,.96,.96,1.91,1.59,1.91h41.37c.96,0,1.6-.96,1.6-1.91v-152.12c0-12.09,8.91-22.91,18.77-28.96,12.09-7.32,32.14-8.27,45.83-6.05,21.64,3.5,36.92,21.32,36.92,43.92v143.2c0,.96,.96,1.91,1.59,1.91h41.37c.96,0,1.6-.96,1.6-1.91v-142.89c.63-25.46-6.37-50.28-27.37-70.01"/><path class="cls-1" d="M294.37,257.29v47.42L0,458.42v-47.1l117.11-61.42L0,320.62v-42.96l172.8,43.6,66.51-34.69L0,226.42v-42.96l294.37,73.84ZM0,557.39l294.37,73.83v-42.64l-239-60.15,66.51-34.69,172.8,43.28v-42.96l-117.11-29.28,117.11-61.42v-47.1L.32,509.97v47.42h-.32Z"/></g><g><path class="cls-2" d="M686.86,68.25h48.75V230.76h-48.75V68.25ZM711.24,0c-15.6,0-28.28,12.68-28.28,27.63s12.68,28.28,28.28,28.28,28.28-13,28.28-28.28-12.68-27.63-28.28-27.63Zm-101.08,93.93v-25.68h-47.45V230.76h48.75v-64.35c0-32.18,14.95-51.68,41.6-51.68,4.88,0,10.08,.65,12.35,1.3v-49.08c-.98-.32-4.88-.97-8.45-.97-19.5,0-36.73,6.83-46.8,27.95ZM486.33,14.63h-48.75V156.66c0,44.85,24.38,76.7,79.63,76.7,8.45,0,16.25-.65,21.78-1.63v-42.25c-4.23,.65-8.78,.97-14.3,.97-25.68,0-38.35-13.98-38.35-38.68v-41.93h52.65v-41.6h-52.65V14.63Zm712.43,77.03v-23.4h-58.18V14.63h-26V166.73c0,41.93,24.7,66.63,69.23,66.63,4.88,0,10.4-.33,14.95-1.3v-23.08c-3.25,.65-8.13,.97-12.35,.97-31.85,0-45.83-17.23-45.83-46.8V91.65h58.18Zm-351.66-27.3c-24.05,0-44.85,10.73-54.28,27.3v-23.4h-26V230.76h26v-86.78c0-34.45,20.8-55.58,50.05-55.58s46.15,19.83,46.15,51.03v91.33h26v-97.18c0-39.98-26.33-69.23-67.93-69.23Zm247.66,81.58c0,2.28,0,9.1-.32,12.68h-133.86c3.13,31.88,26.36,52.65,57.16,52.65,24.7,0,40.3-11.05,50.38-29.9l21.13,11.38c-13.33,26.98-38.35,41.93-71.18,41.93-52.65,0-83.53-36.08-83.53-85.15s34.13-85.15,80.93-85.15,79.3,35.43,79.3,81.58Zm-26.98-9.75c-2.28-27.95-20.8-48.43-52.33-48.43-29.28,0-50.65,21.37-54.59,48.43h106.92Z"/><polygon class="cls-2" points="1169.83 14.63 1169.83 38.68 1226.38 38.68 1226.38 91.65 1251.08 91.65 1251.08 14.63 1169.83 14.63"/></g></svg>